AKA Elite Squad: The Enemy Within
 
http://www.imdb.com/title/tt1555149/

Source: Tropa.de.Elite.2.2010.720p.BluRay.x264-ZMG Thanks!

Subs: Arabic, Brazilian, Danish, Dutch, English, Farsi-Persian, Finnish, French, German, Indonesian, Italian, Norwegian, Portuguese, Spanish, Swedish, Vietnamese.

Sample and Screens included.

General
Complete name                            : Tropa De Elite 2 2010 720p BRRip x264 MP4 AAC-CC.mp4
Format                                   : MPEG-4
Format profile                           : Base Media
Codec ID                                 : isom
File size                                : 2.89 GiB
Duration                                 : 1h 54mn
Overall bit rate mode                    : Variable
Overall bit rate                         : 3 609 Kbps
Encoded date                             : UTC 2013-04-09 17:08:11
Tagged date                              : UTC 2013-04-09 17:08:11
Writing application                      : Yamb 2.1.0.0 

Video
ID                                       : 1
Format                                   : AVC
Format/Info                              : Advanced Video Codec
Format profile                           : High@L4.1
Format settings, CABAC                   : Yes
Format settings, ReFrames                : 5 frames
Codec ID                                 : avc1
Codec ID/Info                            : Advanced Video Coding
Duration                                 : 1h 54mn
Source duration                          : 1h 54mn
Bit rate                                 : 3 253 Kbps
Maximum bit rate                         : 31.5 Mbps
Width                                    : 1 280 pixels
Height                                   : 720 pixels
Display aspect ratio                     : 16:9
Frame rate mode                          : Variable
Frame rate                               : 23.976 fps
Minimum frame rate                       : 11.987 fps
Maximum frame rate                       : 348.837 fps
Color space                              : YUV
Chroma subsampling                       : 4:2:0
Bit depth                                : 8 bits
Scan type                                : Progressive
Bits/(Pixel*Frame)                       : 0.147
Stream size                              : 2.58 GiB (89%)
Writing library                          : x264 core 112
Encoding settings                        : cabac=1 / ref=5 / deblock=1:0:0 / analyse=0x3:0x113 / me=hex / subme=7 / psy=1 / psy_rd=1.00:0.00 / mixed_ref=1 / me_range=16 / chroma_me=1 / trellis=1 / 8x8dct=1 / cqm=0 / deadzone=21,11 / fast_pskip=1 / chroma_qp_offset=-2 / threads=3 / sliced_threads=0 / nr=0 / decimate=1 / interlaced=0 / constrained_intra=0 / bframes=5 / b_pyramid=2 / b_adapt=2 / b_bias=0 / direct=1 / weightb=1 / open_gop=0 / weightp=2 / keyint=240 / keyint_min=23 / scenecut=40 / intra_refresh=0 / rc_lookahead=50 / rc=abr / mbtree=1 / bitrate=3253 / ratetol=1.0 / qcomp=0.60 / qpmin=3 / qpmax=51 / qpstep=4 / ip_ratio=1.40 / aq=1:1.00
Encoded date                             : UTC 2013-04-10 05:16:20
Tagged date                              : UTC 2013-04-09 17:12:16
Color primaries                          : BT.709
Transfer characteristics                 : BT.709
Matrix coefficients                      : BT.709

Audio
ID                                       : 2
Format                                   : AAC
Format/Info                              : Advanced Audio Codec
Format profile                           : LC
Codec ID                                 : 40
Duration                                 : 1h 54mn
Bit rate mode                            : Variable
Bit rate                                 : 384 Kbps
Maximum bit rate                         : 712 Kbps
Channel(s)                               : 6 channels
Channel positions                        : Front: L C R, Side: L R, LFE
Sampling rate                            : 48.0 KHz
Compression mode                         : Lossy
Delay relative to video                  : 42ms
Stream size                              : 315 MiB (11%)
Language                                 : Portuguese 
Encoded date                             : UTC 2013-04-09 17:11:21
Tagged date                              : UTC 2013-04-09 17:12:16

Enjoy...

Requested by cmptrluvr's 

Coming soon: Quiz Show, Candyman, Dial M for Murder and more..